<svg width="395" height="487" viewBox="0 0 395 487" fill="none" xmlns="http://www.w3.org/2000/svg">
<path d="M394.5 291.5C394.5 398.883 311.048 487 192.686 487C74.3236 487 0 407.333 0 299.95C0 192.567 236.456 166.868 150.435 0C242.654 21.6904 394.5 184.117 394.5 291.5Z" fill="#FFB967"/>
<path d="M374 323.211C374 413.669 293.372 487 193.913 487C94.4537 487 19.4998 434.862 31.9999 329.431C44.5 224 244.205 234.494 211.241 77C211.241 77 374 232.753 374 323.211Z" fill="#FF8C5B"/>
<path d="M323.574 351C319.517 420.811 263.151 487 193.147 487C123.143 487 58.3088 413.197 85.3556 347.89C112.402 282.583 213.141 312.5 248.641 178.5C248.641 178.5 327.631 281.189 323.574 351Z" fill="#F7665C"/>
</svg>