<svg width="395" height="995" viewBox="0 0 395 995" fill="none" xmlns="http://www.w3.org/2000/svg">
<path d="M193 986.999C193 986.999 348.509 457.999 338.54 457.999C328.572 457.999 288.896 510.238 192.051 510.238C95.205 510.238 57.4281 457.999 47.4596 457.999C37.491 457.999 193 986.999 193 986.999Z" fill="#272727"/>
<path d="M394.5 291.5C394.5 398.883 311.048 487 192.686 487C74.3236 487 0 407.333 0 299.95C0 192.567 236.456 166.868 150.435 0C242.654 21.6904 394.5 184.117 394.5 291.5Z" fill="#FFB967"/>
<path d="M374 323.211C374 413.669 293.372 487 193.913 487C94.4537 487 19.4998 434.862 31.9999 329.431C44.5 224 244.205 234.494 211.241 77C211.241 77 374 232.753 374 323.211Z" fill="#FF8C5B"/>
<path d="M323.574 351C319.517 420.811 263.151 487 193.147 487C123.143 487 58.3089 413.197 85.3556 347.89C112.402 282.583 213.141 312.5 248.641 178.5C248.641 178.5 327.631 281.189 323.574 351Z" fill="#F7665C"/>
<path d="M192.832 987.911L326 465.5C326 465.5 299.77 484.273 281 492.5C268.162 498.127 247 504 247 504L192.832 987.911Z" fill="#E8E8E8" fill-opacity="0.4"/>
</svg>