<svg xmlns="http://www.w3.org/2000/svg" version="1.0" width="462.37930372240453" height="634.6896558074407" preserveAspectRatio="xMidYMid meet" style=""><rect id="backgroundrect" width="100%" height="100%" x="0" y="0" fill="none" stroke="none"/>


<g class="currentLayer" style=""><title>Layer 1</title><g transform="translate(0,911) scale(0.10000000149011612,-0.10000000149011612) " fill="#ffffff|" stroke="none" id="svg_1" class="selected" fill-opacity="1">
<path d="M1030.219375288934,8856.676664551265 c-186.28780311099365,-194.22999624705253 -247.88296381704802,-271.74380208876624 -319.99437147291655,-402.71540506269616 c-99.15318552681921,-179.97458367846164 -120.18567942644755,-262.83416923339684 -118.68335843361693,-476.66535776226203 c0,-200.46673924581114 18.027851913967133,-272.6347653743032 111.17175346946395,-439.2448997697106 c58.590518720393185,-105.13366769335876 199.80869204646905,-275.307655230914 256.89688977403165,-309.16426008131754 c85.63229659134387,-50.78490727560549 211.82725998911374,-43.657200991309985 304.9711615446106,17.819265710738772 c88.63693857700505,57.912613559901 255.39456878120106,271.74380208876624 297.45955658045773,381.3322862098097 c28.544098863781286,74.84091598510281 24.037135885289505,346.5847180738691 -9.013925956983568,473.99246790565127 c-60.092839713223775,233.4323808106779 -184.7854821181631,526.5593017523307 -335.0175814012225,790.2844342712642 l-57.08819772756257,99.7878879801371 l-130.7019263762617,-135.42641940161468 zm105.16246949814159,-567.5436128870298 c67.60444467737675,-189.7751798193679 96.14854354115802,-327.87448907759335 97.65086453398862,-458.84609205152344 c1.5023209928305956,-125.62582326070834 -18.027851913967133,-184.42940010614626 -87.13461758417446,-277.08958180198795 l-40.56266680642604,-52.56683384667938 l-21.032493899628317,26.72889856610815 c-132.2042473690923,172.84687739416603 -186.28780311099365,475.7743944767251 -120.18567942644755,677.1320970080734 c34.55338283510367,106.9155942644326 97.65086453398862,231.650454239604 114.17639545512515,221.84985809869767 c6.009283971322376,-4.454816427684693 33.05106184227307,-65.93128312973344 57.08819772756257,-137.20834597268853 z" id="svg_2" fill="#ffffff" fill-opacity="1" stroke="none" stroke-opacity="1"/>
<path d="M1984.1932057363624,8093.12112884611 c-124.69264240493933,-37.420457992551405 -148.72977829022886,-92.66018169584163 -117.18103744078637,-255.70646294910134 c51.078913756240205,-261.052242662323 12.018567942644752,-464.191871764745 -129.1996053834311,-660.2037945828715 c-33.05106184227307,-45.43912756238386 -123.19032141210873,-146.1179788280579 -201.31101303929958,-223.63178466977152 c-440.1800508993641,-437.4629731986369 -609.9423230892212,-730.5898941402895 -588.9098291895929,-1011.2433290844253 c9.013925956983568,-130.08063968839298 34.55338283510367,-187.99325324829402 126.19496339776991,-299.36366394041124 c58.590518720393185,-71.27706284295508 90.13925956983564,-97.11499812352626 198.30637105363843,-160.37339139664888 c144.22281531173707,-84.64151212600918 247.88296381704802,-123.84389668963446 407.128989057091,-156.80953825450123 c90.13925956983564,-18.710228996275703 115.67871644795575,-20.492155567349588 156.2413832543818,-12.473485997517137 c72.11140765586853,14.255412568591016 117.18103744078637,46.330090847920815 124.69264240493933,91.76921841030466 c7.511604964152972,34.7475681359406 1.5023209928305956,42.76623770577304 -40.56266680642604,71.27706284295508 c-27.041777870950693,18.710228996275703 -55.585876734731976,32.96564156486672 -66.10212368454614,32.96564156486672 c-9.013925956983568,0 -67.60444467737675,14.255412568591016 -127.69728439060053,31.183714993792847 c-75.1160496415297,21.38311885288652 -138.21353134041468,49.002980704531616 -202.81333403213023,87.31440198261997 c-163.7529882185348,98.00596140906323 -225.34814892458914,195.1209595325895 -223.84582793175852,353.7124243581645 c0,224.52274795530855 168.25995119702654,496.2665500440747 519.8030635193857,843.7422314034808 c181.78084013250188,179.97458367846164 240.3713588528951,250.36068323587972 303.46884055178003,361.73109392799705 c93.14390155549683,167.50109768094447 132.2042473690923,342.1299016461843 118.68335843361693,536.3598978932368 l-7.511604964152972,98.00596140906323 l76.6183706343603,-49.002980704531616 c210.32493899628318,-131.8625662594669 528.8169894763691,-416.0798543457503 736.1372864869911,-653.9670515841128 c410.1336310427522,-467.7557249068927 567.8773352899645,-875.8169096828104 456.7055818205006,-1176.962500194296 c-40.56266680642604,-107.80655754996957 -127.69728439060053,-203.13962910242196 -259.90153175969283,-280.65343494413565 c-94.64622254832743,-56.13068698882714 -142.72049431890645,-76.62284255617672 -289.94795161630464,-120.28004354748671 c-184.7854821181631,-56.13068698882714 -222.3435069389279,-77.51380584171365 -222.3435069389279,-129.18967640285612 c0,-56.13068698882714 82.6276546056827,-106.9155942644326 172.7669141755183,-106.9155942644326 c46.57195077774841,0 250.88760580270926,56.13068698882714 363.56168026500376,99.7878879801371 c220.84118594609737,85.53247541154607 375.5802482076485,190.66614310490485 483.7473596914513,329.6564156486673 c88.63693857700505,112.26137397765427 121.68800041927811,204.0305923879589 132.2042473690923,355.4943509292384 c9.013925956983568,146.1179788280579 -7.511604964152972,251.2516465214167 -66.10212368454614,408.95214806145475 c-235.86439587440324,639.7116390155218 -1219.8846461784424,1564.5315294028644 -1711.1436108340465,1608.188730394174 c-43.56730879208723,3.563853142147755 -75.1160496415297,0 -121.68800041927811,-13.364449283054075 z" id="svg_3" fill="#ffffff" fill-opacity="1" stroke="none" stroke-opacity="1"/>
<path d="M2331.2293550802287,6113.400708383034 c-15.023209928305944,-16.928302425201835 -28.544098863781286,-57.912613559901 -33.05106184227307,-97.11499812352626 c-6.009283971322376,-62.367429987585695 -3.0046419856611903,-71.27706284295508 42.064987799256635,-122.06197011856058 l48.07427177057901,-55.23972370329019 l-69.10676567020734,-38.31142127808836 c-39.06034581359545,-22.27408213842346 -69.10676567020734,-46.330090847920815 -69.10676567020734,-57.02165027436406 c0,-10.691559426443261 21.032493899628317,-41.87527442023612 45.06962978491782,-69.4951362718812 l45.06962978491782,-50.78490727560549 l0,-199.5757759602742 l0,-199.5757759602742 l-617.4539280533744,0 l-617.4539280533744,0 l10.51624694981416,-55.23972370329019 c15.023209928305944,-71.27706284295508 28.544098863781286,-98.00596140906323 75.1160496415297,-146.1179788280579 c96.14854354115802,-98.00596140906323 313.98508750159414,-134.5354561160777 531.8216314620304,-88.2053652681569 c54.083555741901385,10.691559426443261 162.25066722570415,13.364449283054075 645.9980269171555,13.364449283054075 c551.3518043688281,0 584.4028662111012,-0.8909632855369413 639.9887429458331,-17.819265710738772 c138.21353134041468,-41.87527442023612 292.9525936019659,0.8909632855369413 381.58953217897096,106.02463097889569 c31.548740849442478,37.420457992551405 61.595160706054365,113.15233726319119 61.595160706054365,156.80953825450123 l0,31.183714993792847 l-503.2775325982491,0 l-503.2775325982491,0 l0,203.13962910242196 l0,202.24866581688502 l-60.092839713223775,44.54816427684692 c-33.05106184227307,24.946971995034275 -60.092839713223775,51.675870561142425 -60.092839713223775,59.69454013097488 c0,8.909632855369386 24.037135885289505,24.946971995034275 52.581234749070795,35.63853142147754 c93.14390155549683,36.52949470701447 100.65550651964979,74.84091598510281 27.041777870950693,142.55412568591015 c-49.57659276340961,47.221054133457734 -67.60444467737675,107.80655754996957 -52.581234749070795,174.62880396523994 c7.511604964152972,30.2927517082559 10.51624694981416,55.23972370329019 9.013925956983568,55.23972370329019 c-3.0046419856611903,0 -16.525530921136536,-13.364449283054075 -30.046419856611887,-28.51082513718203 z" id="svg_4" fill="#ffffff" fill-opacity="1" stroke="none" stroke-opacity="1"/>
<path d="M1583.0735006505938,4761.809404223498 c-18.027851913967133,-16.928302425201835 22.53481489245891,-146.1179788280579 58.590518720393185,-192.44806967597873 c84.12997559851327,-105.13366769335876 258.3992107668622,-185.32036339168326 455.2032608276701,-210.26733538671752 c135.2088893547535,-16.03733913966489 441.68237189219474,-6.236742998758568 543.8401994046751,17.819265710738772 c234.36207488157274,56.13068698882714 381.58953217897096,176.4107305363138 401.11970508576877,328.7654523631303 l9.013925956983568,64.14935655865956 l-730.1280025156688,0 c-408.63131004992164,0 -733.1326445013301,-3.563853142147755 -737.6396074798216,-8.018669569832445 z" id="svg_5" fill="#ffffff" fill-opacity="1" stroke="none" stroke-opacity="1"/>
<path d="M2039.7790824710933,4146.153773917473 l0,-115.825227119802 l-120.18567942644755,0 c-67.60444467737675,0 -142.72049431890645,-5.345779713221631 -169.76227218985713,-12.473485997517137 c-58.590518720393185,-14.255412568591016 -141.21817332607588,-67.71320970080734 -154.7390622615512,-99.7878879801371 c-15.023209928305944,-35.63853142147754 3.0046419856611903,-101.56981455121098 34.55338283510367,-126.51678654624529 c69.10676567020734,-54.34876041775324 150.2320992830594,-72.16802612849202 332.0129394155613,-73.05898941402894 l108.16711148380277,0 l0,-32.96564156486672 c0,-18.710228996275703 37.55802482076485,-653.0760882985759 82.6276546056827,-1410.3948810049737 c45.06962978491782,-757.3187927063976 82.6276546056827,-1377.4292394401068 82.6276546056827,-1378.3202027256439 c0,-1.7819265710738774 43.56730879208723,-2.6728898566108183 96.14854354115802,-2.6728898566108183 l96.14854354115802,0 l9.013925956983568,55.23972370329019 c4.506962978491784,31.183714993792847 43.56730879208723,666.4405375816298 87.13461758417446,1413.0677708615842 l79.62301262002148,1356.0461205872202 l115.67871644795575,0 c171.26459318268775,0 259.90153175969283,13.364449283054075 319.99437147291655,49.89394399006855 c127.69728439060053,75.73187927063977 94.64622254832743,193.3390329615156 -67.60444467737675,242.3420136660472 c-54.083555741901385,16.03733913966489 -91.64158056266626,19.601192281812654 -207.32029701062203,19.601192281812654 l-142.72049431890645,0 l7.511604964152972,115.825227119802 l7.511604964152972,115.825227119802 l-298.9618775732883,0 l-297.45955658045773,0 l0,-115.825227119802 z" id="svg_6" fill="#ffffff" fill-opacity="1" stroke="none" stroke-opacity="1"/>
</g></g></svg>